HIERARCHY
ROOT Hips
{
	OFFSET 0.000000 0.000000 0.000000
	CHANNELS 6 Xposition Yposition Zposition Zrotation Yrotation Xrotation 
	JOINT LeftUpLeg_virtual
	{
		OFFSET 0.000000 0.000000 0.000000
		CHANNELS 3 Zrotation Yrotation Xrotation
		JOINT LeftUpLeg
		{
			OFFSET 10.205400 -3.823500 0.155100
			CHANNELS 3 Zrotation Yrotation Xrotation
			JOINT LeftLeg
			{
				OFFSET 0.708757 -12.982077 0.567790
				CHANNELS 3 Zrotation Yrotation Xrotation
				JOINT LeftFoot
				{
					OFFSET -0.708756 -10.717838 -2.184338
					CHANNELS 3 Zrotation Yrotation Xrotation
					JOINT LeftToeBase
					{
						OFFSET 0.108149 -7.191104 7.560241
						CHANNELS 3 Zrotation Yrotation Xrotation
						End Site
						{
							OFFSET 0.000000 0.000000 0.000000
						}
					}
				}
			}
		}
	}
	JOINT RightUpLeg_virtual
	{
		OFFSET 0.000000 0.000000 0.000000
		CHANNELS 3 Zrotation Yrotation Xrotation
		JOINT RightUpLeg
		{
			OFFSET -10.205400 -3.823500 0.005500
			CHANNELS 3 Zrotation Yrotation Xrotation
			JOINT RightLeg
			{
				OFFSET -0.708756 -12.982134 0.610632
				CHANNELS 3 Zrotation Yrotation Xrotation
				JOINT RightFoot
				{
					OFFSET 0.708754 -10.717769 -1.945823
					CHANNELS 3 Zrotation Yrotation Xrotation
					JOINT RightToeBase
					{
						OFFSET -0.108140 -7.191069 7.372968
						CHANNELS 3 Zrotation Yrotation Xrotation
						End Site
						{
							OFFSET 0.000000 0.000000 0.000000
						}
					}
				}
			}
		}
	}
	JOINT Spine_virtual
	{
		OFFSET 0.000000 0.000000 0.000000
		CHANNELS 3 Zrotation Yrotation Xrotation
		JOINT Spine
		{
			OFFSET 0.000000 6.876099 0.125700
			CHANNELS 3 Zrotation Yrotation Xrotation
			JOINT Spine1
			{
				OFFSET 0.000000 8.022060 0.146608
				CHANNELS 3 Zrotation Yrotation Xrotation
				JOINT Spine2
				{
					OFFSET 0.000000 9.168068 0.167552
					CHANNELS 3 Zrotation Yrotation Xrotation
					JOINT Neck_virtual
					{
						OFFSET 0.000000 0.000000 0.000000
						CHANNELS 3 Zrotation Yrotation Xrotation
						JOINT Neck
						{
							OFFSET 0.000000 10.314075 0.188496
							CHANNELS 3 Zrotation Yrotation Xrotation
							JOINT Head
							{
								OFFSET 0.000000 7.643700 -2.377400
								CHANNELS 3 Zrotation Yrotation Xrotation
								End Site
								{
									OFFSET 0.000000 0.000000 0.000000
								}
							}
						}
					}
					JOINT LeftShoulder_virtual
					{
						OFFSET 0.000000 0.000000 0.000000
						CHANNELS 3 Zrotation Yrotation Xrotation
						JOINT LeftShoulder
						{
							OFFSET 4.392200 8.824978 0.174984
							CHANNELS 3 Zrotation Yrotation Xrotation
							JOINT LeftArm
							{
								OFFSET 8.771219 -2.981674 -0.026999
								CHANNELS 3 Zrotation Yrotation Xrotation
								JOINT LeftForeArm
								{
									OFFSET 8.512804 0.000000 -0.000000
									CHANNELS 3 Zrotation Yrotation Xrotation
									JOINT LeftHand
									{
										OFFSET 18.484802 0.000000 -0.000000
										CHANNELS 3 Zrotation Yrotation Xrotation
										End Site
										{
											OFFSET 0.000000 0.000000 0.000000
										}
									}
								}
							}
						}
					}
					JOINT RightShoulder_virtual
					{
						OFFSET 0.000000 0.000000 0.000000
						CHANNELS 3 Zrotation Yrotation Xrotation
						JOINT RightShoulder
						{
							OFFSET -4.392200 8.824993 0.141379
							CHANNELS 3 Zrotation Yrotation Xrotation
							JOINT RightArm
							{
								OFFSET -8.771282 -2.981682 -0.094208
								CHANNELS 3 Zrotation Yrotation Xrotation
								JOINT RightForeArm
								{
									OFFSET -8.494598 0.000000 0.000000
									CHANNELS 3 Zrotation Yrotation Xrotation
									JOINT RightHand
									{
										OFFSET -18.483803 0.000000 0.000001
										CHANNELS 3 Zrotation Yrotation Xrotation
										End Site
										{
											OFFSET 0.000000 0.000000 0.000000
										}
									}
								}
							}
						}
					}
				}
			}
		}
	}
}
MOTION
Frames: 7
Frame Time: 0.033333
-20.230442 35.923649 47.439831 179.779923 9.546731 -179.817461 -1.849441 -6.420715 2.864167 -6.148767 10.227772 -17.292036 13.233503 7.302431 22.371176 -2.775742 -2.180457 8.865542 0.000000 0.000000 0.000000 1.253775 -3.384555 0.558180 2.376345 5.430792 -14.440429 -6.017052 5.990240 21.898871 7.939231 3.816699 6.051939 0.000000 0.000000 0.000000 0.896402 -1.551431 -9.529934 -1.241756 -2.725853 -11.297275 0.720395 -3.282848 6.080708 -0.008220 0.059695 0.000450 -0.596726 -0.331690 12.592012 -6.699829 -0.205256 23.658944 0.000000 0.000000 0.000000 1.912821 0.692663 9.585806 -22.531150 13.742571 -13.927364 -70.850290 18.931848 -91.502501 7.756407 -21.132129 10.849718 0.000000 0.000000 0.000000 -2.308229 1.467371 9.138233 20.311536 14.353250 1.372660 41.775032 -30.002675 21.815320 -4.732241 37.649089 -2.611371 0.000000 0.000000 0.000000 
-20.221142 35.973225 47.465611 179.875477 9.377226 -179.901637 -1.708665 -5.734809 3.329290 -6.025753 10.790607 -17.447979 12.790264 7.699491 22.429523 -2.706596 -2.007923 8.772315 0.000000 0.000000 0.000000 1.466624 -2.659061 1.123168 2.272852 5.539166 -14.350132 -6.382159 6.425083 21.715448 8.071994 4.160272 5.567807 0.000000 0.000000 0.000000 1.030846 -0.952192 -8.813588 -1.388728 -2.897856 -11.396567 0.819121 -3.529340 5.821591 0.009565 0.002873 0.063757 -0.457910 -0.517082 12.264128 -6.725478 -0.121406 22.937273 0.000000 0.000000 0.000000 2.099603 0.516366 9.419094 -22.161932 11.897853 -13.265504 -71.047300 19.035794 -85.932017 7.724905 -21.102073 11.176436 0.000000 0.000000 0.000000 -2.208172 1.249251 9.081295 20.082834 13.747651 1.253909 42.571480 -30.675653 21.745714 -4.497481 37.636070 -2.265095 0.000000 0.000000 0.000000 
-20.102982 36.044170 47.554226 179.970348 9.273434 -179.885914 -1.856576 -4.892193 3.528574 -5.102511 11.642186 -17.849687 11.556403 7.826545 22.190501 -3.038577 -2.185545 8.850539 0.000000 0.000000 0.000000 1.653923 -1.779370 1.548481 2.377758 5.034891 -14.358552 -6.321894 5.951752 21.310011 7.662584 4.011241 5.679301 0.000000 0.000000 0.000000 1.151551 -0.312829 -8.272846 -1.387161 -2.859277 -11.689910 0.928547 -3.651637 5.921328 0.029997 0.017447 -0.008092 -0.250339 -0.748384 12.256268 -6.703996 -0.358037 21.719290 0.000000 0.000000 0.000000 2.259825 0.070001 9.529408 -21.143440 8.633724 -11.543692 -70.769400 21.561227 -73.094130 6.598609 -23.997835 11.425848 0.000000 0.000000 0.000000 -2.088717 0.943448 9.132462 19.493155 12.381183 1.043153 44.304217 -31.510825 21.212822 -4.510443 37.919411 -2.319267 0.000000 0.000000 0.000000 
-19.862516 36.113903 47.658134 179.938847 9.319794 -179.868100 -1.967607 -4.115973 3.523492 -4.260987 12.722960 -18.182870 11.155424 8.255191 22.135619 -4.046186 -2.819018 9.385611 0.000000 0.000000 0.000000 1.758631 -0.884003 1.881468 2.562889 4.101568 -14.369333 -5.594557 5.992836 20.728828 6.611528 3.804423 5.973829 0.000000 0.000000 0.000000 1.133108 0.335982 -8.069273 -1.231669 -2.590631 -11.889819 0.995420 -3.750428 6.195762 0.041296 -0.018523 0.057699 -0.123404 -0.849227 12.520996 -6.580554 -0.576658 20.226611 0.000000 0.000000 0.000000 2.333109 -0.132763 9.799471 -19.865925 4.695168 -9.429209 -68.419016 26.458864 -52.598112 4.551735 -28.655239 11.698427 0.000000 0.000000 0.000000 -2.074601 0.807632 9.390374 18.828318 10.687638 0.752177 46.661564 -31.644628 20.554947 -4.730006 38.312204 -2.667820 0.000000 0.000000 0.000000 
-19.518530 36.160728 47.729145 179.981782 9.840525 -179.860765 -2.024123 -3.137609 3.451559 -3.204399 13.416939 -18.273785 10.735763 8.292850 22.099552 -4.999385 -3.132609 9.958494 0.000000 0.000000 0.000000 1.836524 0.131184 2.096708 3.314306 2.277279 -14.399360 -5.098005 6.389088 20.195534 5.825091 4.022771 6.524774 0.000000 0.000000 0.000000 1.070732 1.095037 -8.143832 -0.915528 -2.002120 -11.890155 0.917363 -3.692513 6.747308 -0.004122 0.026409 0.032201 -0.016654 -0.934222 13.028515 -6.426453 -0.886544 18.730267 0.000000 0.000000 0.000000 2.401920 -0.277038 10.290897 -18.668244 0.795318 -7.135780 -63.106679 31.625104 -26.923889 2.245079 -33.118508 12.227728 0.000000 0.000000 0.000000 -2.123511 0.789543 9.825793 18.348789 8.671597 0.419017 49.126562 -31.312005 19.670692 -4.989413 38.557938 -3.144648 0.000000 0.000000 0.000000 
-19.099224 36.195515 47.802288 179.906131 10.456171 -179.951183 -2.226944 -2.510775 3.555523 -1.965955 13.608989 -18.147396 10.384315 7.925632 21.801563 -5.748975 -3.178572 10.361911 0.000000 0.000000 0.000000 1.683589 0.665443 2.369749 3.934082 2.633782 -14.359713 -4.947980 4.503278 19.598577 5.262170 4.554523 7.253221 0.000000 0.000000 0.000000 0.773564 1.645198 -8.331375 -0.619802 -1.269661 -11.630606 0.810131 -3.579351 7.389171 0.006849 0.021855 0.007582 -0.137626 -0.846200 13.507380 -6.244294 -1.130391 17.358485 0.000000 0.000000 0.000000 2.243237 -0.223322 10.768016 -17.655897 -2.251393 -5.023091 -56.001080 33.898120 -3.854368 0.366991 -35.871228 12.537486 0.000000 0.000000 0.000000 -2.383727 0.887741 10.280476 18.274197 6.525799 0.110977 51.500589 -30.706157 18.627159 -5.232333 38.565410 -3.684207 0.000000 0.000000 0.000000 
-18.622030 36.217838 47.826496 179.817912 10.982543 -179.869002 -2.458945 -2.372278 3.821842 -0.644718 13.190543 -17.996073 9.937870 7.422208 21.390158 -5.962922 -2.852717 10.541104 0.000000 0.000000 0.000000 1.525013 0.664497 2.629442 4.758060 2.868396 -14.566131 -4.740394 3.462888 19.057852 4.588052 4.822722 7.975426 0.000000 0.000000 0.000000 0.446675 1.807805 -8.559439 -0.345375 -0.394265 -11.247775 0.567077 -3.392014 8.004278 0.003467 0.006411 0.017321 -0.265665 -0.774484 13.842685 -6.044547 -1.424592 16.126198 0.000000 0.000000 0.000000 2.007557 -0.085112 11.130276 -16.783424 -4.323048 -3.299513 -50.699190 33.255283 10.537606 -0.917197 -38.080620 12.594773 0.000000 0.000000 0.000000 -2.607052 1.069815 10.621328 18.754704 4.318913 -0.184795 53.731896 -30.158666 17.245118 -5.548716 38.390311 -4.224511 0.000000 0.000000 0.000000 
